<mxfile host="app.diagrams.net" modified="2023-12-04T12:29:48.718Z" agent="Mozilla/5.0 (Windows NT 10.0; Win64; x64) AppleWebKit/537.36 (KHTML, like Gecko) Chrome/110.0.0.0 Safari/537.36" etag="AeSeE4YRabmy5gXP7SVP" version="22.1.5" type="google">
  <diagram id="C5RBs43oDa-KdzZeNtuy" name="Page-1">
    <mxGraphModel grid="1" page="1" gridSize="10" guides="1" tooltips="1" connect="1" arrows="1" fold="1" pageScale="1" pageWidth="827" pageHeight="1169" math="0" shadow="0">
      <root>
        <mxCell id="WIyWlLk6GJQsqaUBKTNV-0" />
        <mxCell id="WIyWlLk6GJQsqaUBKTNV-1" parent="WIyWlLk6GJQsqaUBKTNV-0" />
        <mxCell id="zkfFHV4jXpPFQw0GAbJ--0" value="хэрэглэгч нэвтрэх хэсэг" style="swimlane;fontStyle=2;align=center;verticalAlign=top;childLayout=stackLayout;horizontal=1;startSize=26;horizontalStack=0;resizeParent=1;resizeLast=0;collapsible=1;marginBottom=0;rounded=0;shadow=0;strokeWidth=1;" vertex="1" parent="WIyWlLk6GJQsqaUBKTNV-1">
          <mxGeometry x="-1370" y="160" width="160" height="104" as="geometry">
            <mxRectangle x="230" y="140" width="160" height="26" as="alternateBounds" />
          </mxGeometry>
        </mxCell>
        <mxCell id="zkfFHV4jXpPFQw0GAbJ--2" value="утасны дугаар" style="text;align=left;verticalAlign=top;spacingLeft=4;spacingRight=4;overflow=hidden;rotatable=0;points=[[0,0.5],[1,0.5]];portConstraint=eastwest;rounded=0;shadow=0;html=0;" vertex="1" parent="zkfFHV4jXpPFQw0GAbJ--0">
          <mxGeometry y="26" width="160" height="26" as="geometry" />
        </mxCell>
        <mxCell id="zkfFHV4jXpPFQw0GAbJ--1" value="нэр" style="text;align=left;verticalAlign=top;spacingLeft=4;spacingRight=4;overflow=hidden;rotatable=0;points=[[0,0.5],[1,0.5]];portConstraint=eastwest;" vertex="1" parent="zkfFHV4jXpPFQw0GAbJ--0">
          <mxGeometry y="52" width="160" height="26" as="geometry" />
        </mxCell>
        <mxCell id="zkfFHV4jXpPFQw0GAbJ--3" value="е-майл хаяг" style="text;align=left;verticalAlign=top;spacingLeft=4;spacingRight=4;overflow=hidden;rotatable=0;points=[[0,0.5],[1,0.5]];portConstraint=eastwest;rounded=0;shadow=0;html=0;" vertex="1" parent="zkfFHV4jXpPFQw0GAbJ--0">
          <mxGeometry y="78" width="160" height="26" as="geometry" />
        </mxCell>
        <mxCell id="SUse24sYu-4oGpuoItzY-66" value="" style="edgeStyle=orthogonalEdgeStyle;rounded=0;orthogonalLoop=1;jettySize=auto;html=1;" edge="1" parent="WIyWlLk6GJQsqaUBKTNV-1" source="SUse24sYu-4oGpuoItzY-0" target="SUse24sYu-4oGpuoItzY-65">
          <mxGeometry relative="1" as="geometry" />
        </mxCell>
        <mxCell id="SUse24sYu-4oGpuoItzY-0" value="админ" style="swimlane;fontStyle=2;align=center;verticalAlign=top;childLayout=stackLayout;horizontal=1;startSize=26;horizontalStack=0;resizeParent=1;resizeLast=0;collapsible=1;marginBottom=0;rounded=0;shadow=0;strokeWidth=1;" vertex="1" parent="WIyWlLk6GJQsqaUBKTNV-1">
          <mxGeometry x="-610" y="-40" width="160" height="104" as="geometry">
            <mxRectangle x="230" y="140" width="160" height="26" as="alternateBounds" />
          </mxGeometry>
        </mxCell>
        <mxCell id="SUse24sYu-4oGpuoItzY-1" value="нэр" style="text;align=left;verticalAlign=top;spacingLeft=4;spacingRight=4;overflow=hidden;rotatable=0;points=[[0,0.5],[1,0.5]];portConstraint=eastwest;" vertex="1" parent="SUse24sYu-4oGpuoItzY-0">
          <mxGeometry y="26" width="160" height="26" as="geometry" />
        </mxCell>
        <mxCell id="SUse24sYu-4oGpuoItzY-2" value="утасны дугаар" style="text;align=left;verticalAlign=top;spacingLeft=4;spacingRight=4;overflow=hidden;rotatable=0;points=[[0,0.5],[1,0.5]];portConstraint=eastwest;rounded=0;shadow=0;html=0;" vertex="1" parent="SUse24sYu-4oGpuoItzY-0">
          <mxGeometry y="52" width="160" height="26" as="geometry" />
        </mxCell>
        <mxCell id="SUse24sYu-4oGpuoItzY-3" value="е-майл хаяг" style="text;align=left;verticalAlign=top;spacingLeft=4;spacingRight=4;overflow=hidden;rotatable=0;points=[[0,0.5],[1,0.5]];portConstraint=eastwest;rounded=0;shadow=0;html=0;" vertex="1" parent="SUse24sYu-4oGpuoItzY-0">
          <mxGeometry y="78" width="160" height="26" as="geometry" />
        </mxCell>
        <mxCell id="SUse24sYu-4oGpuoItzY-5" value="үйлчлүүлэгч бүртгүүлэх Customer" style="swimlane;fontStyle=2;align=center;verticalAlign=top;childLayout=stackLayout;horizontal=1;startSize=26;horizontalStack=0;resizeParent=1;resizeLast=0;collapsible=1;marginBottom=0;rounded=0;shadow=0;strokeWidth=1;" vertex="1" parent="WIyWlLk6GJQsqaUBKTNV-1">
          <mxGeometry x="-1330" y="-210" width="210" height="200" as="geometry">
            <mxRectangle x="230" y="140" width="160" height="26" as="alternateBounds" />
          </mxGeometry>
        </mxCell>
        <mxCell id="SUse24sYu-4oGpuoItzY-11" value="Овог" style="text;align=left;verticalAlign=top;spacingLeft=4;spacingRight=4;overflow=hidden;rotatable=0;points=[[0,0.5],[1,0.5]];portConstraint=eastwest;rounded=0;shadow=0;html=0;" vertex="1" parent="SUse24sYu-4oGpuoItzY-5">
          <mxGeometry y="26" width="210" height="26" as="geometry" />
        </mxCell>
        <mxCell id="SUse24sYu-4oGpuoItzY-6" value="нэр" style="text;align=left;verticalAlign=top;spacingLeft=4;spacingRight=4;overflow=hidden;rotatable=0;points=[[0,0.5],[1,0.5]];portConstraint=eastwest;" vertex="1" parent="SUse24sYu-4oGpuoItzY-5">
          <mxGeometry y="52" width="210" height="24" as="geometry" />
        </mxCell>
        <mxCell id="SUse24sYu-4oGpuoItzY-12" value="рг-дугаар" style="text;align=left;verticalAlign=top;spacingLeft=4;spacingRight=4;overflow=hidden;rotatable=0;points=[[0,0.5],[1,0.5]];portConstraint=eastwest;rounded=0;shadow=0;html=0;" vertex="1" parent="SUse24sYu-4oGpuoItzY-5">
          <mxGeometry y="76" width="210" height="26" as="geometry" />
        </mxCell>
        <mxCell id="SUse24sYu-4oGpuoItzY-7" value="утасны дугаар" style="text;align=left;verticalAlign=top;spacingLeft=4;spacingRight=4;overflow=hidden;rotatable=0;points=[[0,0.5],[1,0.5]];portConstraint=eastwest;rounded=0;shadow=0;html=0;" vertex="1" parent="SUse24sYu-4oGpuoItzY-5">
          <mxGeometry y="102" width="210" height="30" as="geometry" />
        </mxCell>
        <mxCell id="SUse24sYu-4oGpuoItzY-8" value="е-майл хаяг" style="text;align=left;verticalAlign=top;spacingLeft=4;spacingRight=4;overflow=hidden;rotatable=0;points=[[0,0.5],[1,0.5]];portConstraint=eastwest;rounded=0;shadow=0;html=0;" vertex="1" parent="SUse24sYu-4oGpuoItzY-5">
          <mxGeometry y="132" width="210" height="30" as="geometry" />
        </mxCell>
        <mxCell id="SUse24sYu-4oGpuoItzY-150" value="Гэрийн хаяг" style="text;align=left;verticalAlign=top;spacingLeft=4;spacingRight=4;overflow=hidden;rotatable=0;points=[[0,0.5],[1,0.5]];portConstraint=eastwest;rounded=0;shadow=0;html=0;" vertex="1" parent="SUse24sYu-4oGpuoItzY-5">
          <mxGeometry y="162" width="210" height="30" as="geometry" />
        </mxCell>
        <mxCell id="SUse24sYu-4oGpuoItzY-138" style="edgeStyle=orthogonalEdgeStyle;rounded=0;orthogonalLoop=1;jettySize=auto;html=1;entryX=1;entryY=0.5;entryDx=0;entryDy=0;" edge="1" parent="WIyWlLk6GJQsqaUBKTNV-1" source="SUse24sYu-4oGpuoItzY-22" target="SUse24sYu-4oGpuoItzY-29">
          <mxGeometry relative="1" as="geometry" />
        </mxCell>
        <mxCell id="SUse24sYu-4oGpuoItzY-163" style="edgeStyle=orthogonalEdgeStyle;rounded=0;orthogonalLoop=1;jettySize=auto;html=1;exitX=1;exitY=0.5;exitDx=0;exitDy=0;exitPerimeter=0;entryX=0;entryY=0.5;entryDx=0;entryDy=0;" edge="1" parent="WIyWlLk6GJQsqaUBKTNV-1" source="SUse24sYu-4oGpuoItzY-22" target="SUse24sYu-4oGpuoItzY-2">
          <mxGeometry relative="1" as="geometry" />
        </mxCell>
        <mxCell id="SUse24sYu-4oGpuoItzY-22" value="хэрэглэгчийн бүртгэлүүдийг хадагалах сан" style="shape=cylinder3;whiteSpace=wrap;html=1;boundedLbl=1;backgroundOutline=1;size=15;" vertex="1" parent="WIyWlLk6GJQsqaUBKTNV-1">
          <mxGeometry x="-910" y="-40" width="190" height="134" as="geometry" />
        </mxCell>
        <mxCell id="SUse24sYu-4oGpuoItzY-139" style="edgeStyle=orthogonalEdgeStyle;rounded=0;orthogonalLoop=1;jettySize=auto;html=1;" edge="1" parent="WIyWlLk6GJQsqaUBKTNV-1" source="SUse24sYu-4oGpuoItzY-29" target="zkfFHV4jXpPFQw0GAbJ--0">
          <mxGeometry relative="1" as="geometry" />
        </mxCell>
        <mxCell id="SUse24sYu-4oGpuoItzY-29" value="хадгалсан мэдээллийг ID болгон дуудаж байна" style="text;html=1;strokeColor=none;fillColor=none;align=center;verticalAlign=middle;whiteSpace=wrap;rounded=0;" vertex="1" parent="WIyWlLk6GJQsqaUBKTNV-1">
          <mxGeometry x="-1140" y="70" width="150" height="40" as="geometry" />
        </mxCell>
        <mxCell id="SUse24sYu-4oGpuoItzY-142" style="edgeStyle=orthogonalEdgeStyle;rounded=0;orthogonalLoop=1;jettySize=auto;html=1;" edge="1" parent="WIyWlLk6GJQsqaUBKTNV-1" source="SUse24sYu-4oGpuoItzY-36" target="SUse24sYu-4oGpuoItzY-143">
          <mxGeometry relative="1" as="geometry">
            <mxPoint x="-780" y="490" as="targetPoint" />
          </mxGeometry>
        </mxCell>
        <mxCell id="SUse24sYu-4oGpuoItzY-36" value="хэрэглэгчид харагдах хэсэг буюу онлайн дэлгүүр" style="swimlane;whiteSpace=wrap;html=1;" vertex="1" parent="WIyWlLk6GJQsqaUBKTNV-1">
          <mxGeometry x="-1090" y="260" width="330" height="170" as="geometry" />
        </mxCell>
        <mxCell id="SUse24sYu-4oGpuoItzY-141" style="edgeStyle=orthogonalEdgeStyle;rounded=0;orthogonalLoop=1;jettySize=auto;html=1;exitX=1;exitY=0.5;exitDx=0;exitDy=0;entryX=0.5;entryY=0;entryDx=0;entryDy=0;" edge="1" parent="WIyWlLk6GJQsqaUBKTNV-1" source="SUse24sYu-4oGpuoItzY-39" target="SUse24sYu-4oGpuoItzY-36">
          <mxGeometry relative="1" as="geometry" />
        </mxCell>
        <mxCell id="SUse24sYu-4oGpuoItzY-39" value="хэрэглэгчид харагдах хэсэг" style="text;html=1;strokeColor=none;fillColor=none;align=center;verticalAlign=middle;whiteSpace=wrap;rounded=0;fontSize=10;" vertex="1" parent="WIyWlLk6GJQsqaUBKTNV-1">
          <mxGeometry x="-1050" y="134.5" width="60" height="50" as="geometry" />
        </mxCell>
        <mxCell id="SUse24sYu-4oGpuoItzY-21" value="үйлчлүүлэгчийн бүртгэл" style="text;html=1;strokeColor=none;fillColor=none;align=center;verticalAlign=middle;whiteSpace=wrap;rounded=0;" vertex="1" parent="WIyWlLk6GJQsqaUBKTNV-1">
          <mxGeometry x="-1060" y="-50" width="70" height="50" as="geometry" />
        </mxCell>
        <mxCell id="SUse24sYu-4oGpuoItzY-55" style="edgeStyle=orthogonalEdgeStyle;rounded=0;orthogonalLoop=1;jettySize=auto;html=1;entryX=0.947;entryY=0.388;entryDx=0;entryDy=0;entryPerimeter=0;" edge="1" parent="WIyWlLk6GJQsqaUBKTNV-1" source="SUse24sYu-4oGpuoItzY-0" target="SUse24sYu-4oGpuoItzY-22">
          <mxGeometry relative="1" as="geometry" />
        </mxCell>
        <mxCell id="SUse24sYu-4oGpuoItzY-123" style="edgeStyle=orthogonalEdgeStyle;rounded=0;orthogonalLoop=1;jettySize=auto;html=1;" edge="1" parent="WIyWlLk6GJQsqaUBKTNV-1" source="SUse24sYu-4oGpuoItzY-65" target="SUse24sYu-4oGpuoItzY-68">
          <mxGeometry relative="1" as="geometry" />
        </mxCell>
        <mxCell id="SUse24sYu-4oGpuoItzY-65" value="удирдах хэсэг" style="whiteSpace=wrap;html=1;verticalAlign=top;fontStyle=2;startSize=26;rounded=0;shadow=0;strokeWidth=1;" vertex="1" parent="WIyWlLk6GJQsqaUBKTNV-1">
          <mxGeometry x="-590" y="102" width="120" height="28" as="geometry" />
        </mxCell>
        <mxCell id="SUse24sYu-4oGpuoItzY-133" value="" style="edgeStyle=orthogonalEdgeStyle;rounded=0;orthogonalLoop=1;jettySize=auto;html=1;" edge="1" parent="WIyWlLk6GJQsqaUBKTNV-1" source="SUse24sYu-4oGpuoItzY-68" target="SUse24sYu-4oGpuoItzY-132">
          <mxGeometry relative="1" as="geometry" />
        </mxCell>
        <mxCell id="SUse24sYu-4oGpuoItzY-68" value="вэб сайтын нэгдсэн нөөц байршуулагч" style="whiteSpace=wrap;html=1;fontStyle=1;startSize=23;" vertex="1" parent="WIyWlLk6GJQsqaUBKTNV-1">
          <mxGeometry x="-605" y="160" width="150" height="120" as="geometry" />
        </mxCell>
        <mxCell id="SUse24sYu-4oGpuoItzY-118" value="" style="edgeStyle=orthogonalEdgeStyle;rounded=0;orthogonalLoop=1;jettySize=auto;html=1;" edge="1" parent="WIyWlLk6GJQsqaUBKTNV-1" source="SUse24sYu-4oGpuoItzY-70" target="SUse24sYu-4oGpuoItzY-117">
          <mxGeometry relative="1" as="geometry" />
        </mxCell>
        <mxCell id="SUse24sYu-4oGpuoItzY-70" value="бүтээгдэхүүний ангилал&lt;br&gt;product&lt;br&gt;category" style="whiteSpace=wrap;html=1;fontStyle=1;startSize=23;" vertex="1" parent="WIyWlLk6GJQsqaUBKTNV-1">
          <mxGeometry x="-360" y="270" width="140" height="108.5" as="geometry" />
        </mxCell>
        <mxCell id="SUse24sYu-4oGpuoItzY-83" value="" style="edgeStyle=orthogonalEdgeStyle;rounded=0;orthogonalLoop=1;jettySize=auto;html=1;" edge="1" parent="WIyWlLk6GJQsqaUBKTNV-1" source="SUse24sYu-4oGpuoItzY-74" target="SUse24sYu-4oGpuoItzY-91">
          <mxGeometry relative="1" as="geometry">
            <mxPoint x="-150" y="256" as="targetPoint" />
          </mxGeometry>
        </mxCell>
        <mxCell id="SUse24sYu-4oGpuoItzY-89" style="edgeStyle=orthogonalEdgeStyle;rounded=0;orthogonalLoop=1;jettySize=auto;html=1;exitX=1;exitY=1;exitDx=0;exitDy=0;" edge="1" parent="WIyWlLk6GJQsqaUBKTNV-1" source="SUse24sYu-4oGpuoItzY-74" target="SUse24sYu-4oGpuoItzY-90">
          <mxGeometry relative="1" as="geometry">
            <mxPoint x="-170" y="350" as="targetPoint" />
          </mxGeometry>
        </mxCell>
        <mxCell id="SUse24sYu-4oGpuoItzY-74" value="бүтээгдэхүүн&lt;br&gt;product&amp;nbsp;" style="ellipse;whiteSpace=wrap;html=1;fontStyle=1;startSize=23;" vertex="1" parent="WIyWlLk6GJQsqaUBKTNV-1">
          <mxGeometry x="-200" y="89" width="130" height="141" as="geometry" />
        </mxCell>
        <mxCell id="SUse24sYu-4oGpuoItzY-90" value="бүтээгдэхүүний үнэ, ID, Тоо ширхэг" style="rounded=0;whiteSpace=wrap;html=1;" vertex="1" parent="WIyWlLk6GJQsqaUBKTNV-1">
          <mxGeometry y="307" width="120" height="40" as="geometry" />
        </mxCell>
        <mxCell id="SUse24sYu-4oGpuoItzY-91" value="бүтээгдэхүүний байдал&lt;br style=&quot;border-color: var(--border-color); font-weight: 700;&quot;&gt;&lt;span style=&quot;font-weight: 700;&quot;&gt;status&lt;/span&gt;" style="shape=cylinder3;whiteSpace=wrap;html=1;boundedLbl=1;backgroundOutline=1;size=15;" vertex="1" parent="WIyWlLk6GJQsqaUBKTNV-1">
          <mxGeometry x="180" y="123.5" width="110" height="72" as="geometry" />
        </mxCell>
        <mxCell id="SUse24sYu-4oGpuoItzY-96" value="" style="edgeStyle=orthogonalEdgeStyle;rounded=0;orthogonalLoop=1;jettySize=auto;html=1;" edge="1" parent="WIyWlLk6GJQsqaUBKTNV-1" source="SUse24sYu-4oGpuoItzY-94" target="SUse24sYu-4oGpuoItzY-95">
          <mxGeometry relative="1" as="geometry" />
        </mxCell>
        <mxCell id="SUse24sYu-4oGpuoItzY-97" style="edgeStyle=orthogonalEdgeStyle;rounded=0;orthogonalLoop=1;jettySize=auto;html=1;exitX=0.5;exitY=0;exitDx=0;exitDy=0;" edge="1" parent="WIyWlLk6GJQsqaUBKTNV-1" source="SUse24sYu-4oGpuoItzY-94" target="SUse24sYu-4oGpuoItzY-98">
          <mxGeometry relative="1" as="geometry">
            <mxPoint x="-230" y="-20" as="targetPoint" />
          </mxGeometry>
        </mxCell>
        <mxCell id="SUse24sYu-4oGpuoItzY-99" style="edgeStyle=orthogonalEdgeStyle;rounded=0;orthogonalLoop=1;jettySize=auto;html=1;exitX=0.5;exitY=0;exitDx=0;exitDy=0;" edge="1" parent="WIyWlLk6GJQsqaUBKTNV-1" source="SUse24sYu-4oGpuoItzY-94" target="SUse24sYu-4oGpuoItzY-100">
          <mxGeometry relative="1" as="geometry">
            <mxPoint x="-70" y="-50" as="targetPoint" />
          </mxGeometry>
        </mxCell>
        <mxCell id="SUse24sYu-4oGpuoItzY-101" style="edgeStyle=orthogonalEdgeStyle;rounded=0;orthogonalLoop=1;jettySize=auto;html=1;exitX=0.5;exitY=1;exitDx=0;exitDy=0;entryX=0;entryY=0;entryDx=0;entryDy=0;" edge="1" parent="WIyWlLk6GJQsqaUBKTNV-1" source="SUse24sYu-4oGpuoItzY-94" target="SUse24sYu-4oGpuoItzY-74">
          <mxGeometry relative="1" as="geometry" />
        </mxCell>
        <mxCell id="SUse24sYu-4oGpuoItzY-94" value="Нэмэгдсэн бараа&lt;br&gt;cart" style="rounded=0;whiteSpace=wrap;html=1;" vertex="1" parent="WIyWlLk6GJQsqaUBKTNV-1">
          <mxGeometry x="-240" y="-70" width="120" height="60" as="geometry" />
        </mxCell>
        <mxCell id="SUse24sYu-4oGpuoItzY-95" value="бараа ID" style="whiteSpace=wrap;html=1;rounded=0;" vertex="1" parent="WIyWlLk6GJQsqaUBKTNV-1">
          <mxGeometry x="-190" y="-130" width="100" height="20" as="geometry" />
        </mxCell>
        <mxCell id="SUse24sYu-4oGpuoItzY-98" value="То хэмжээ&lt;br&gt;Quantity" style="rounded=0;whiteSpace=wrap;html=1;" vertex="1" parent="WIyWlLk6GJQsqaUBKTNV-1">
          <mxGeometry x="-300" y="-130" width="80" height="30" as="geometry" />
        </mxCell>
        <mxCell id="SUse24sYu-4oGpuoItzY-100" value="Хэмжээ" style="rounded=0;whiteSpace=wrap;html=1;" vertex="1" parent="WIyWlLk6GJQsqaUBKTNV-1">
          <mxGeometry x="-70" y="-130" width="70" height="20" as="geometry" />
        </mxCell>
        <mxCell id="SUse24sYu-4oGpuoItzY-105" value="" style="edgeStyle=orthogonalEdgeStyle;rounded=0;orthogonalLoop=1;jettySize=auto;html=1;" edge="1" parent="WIyWlLk6GJQsqaUBKTNV-1" source="SUse24sYu-4oGpuoItzY-102" target="SUse24sYu-4oGpuoItzY-104">
          <mxGeometry relative="1" as="geometry" />
        </mxCell>
        <mxCell id="SUse24sYu-4oGpuoItzY-106" style="edgeStyle=orthogonalEdgeStyle;rounded=0;orthogonalLoop=1;jettySize=auto;html=1;" edge="1" parent="WIyWlLk6GJQsqaUBKTNV-1" source="SUse24sYu-4oGpuoItzY-102" target="SUse24sYu-4oGpuoItzY-107">
          <mxGeometry relative="1" as="geometry">
            <mxPoint x="100" y="-50" as="targetPoint" />
          </mxGeometry>
        </mxCell>
        <mxCell id="SUse24sYu-4oGpuoItzY-108" style="edgeStyle=orthogonalEdgeStyle;rounded=0;orthogonalLoop=1;jettySize=auto;html=1;" edge="1" parent="WIyWlLk6GJQsqaUBKTNV-1" source="SUse24sYu-4oGpuoItzY-102" target="SUse24sYu-4oGpuoItzY-109">
          <mxGeometry relative="1" as="geometry">
            <mxPoint x="220" y="-70" as="targetPoint" />
          </mxGeometry>
        </mxCell>
        <mxCell id="SUse24sYu-4oGpuoItzY-110" style="edgeStyle=orthogonalEdgeStyle;rounded=0;orthogonalLoop=1;jettySize=auto;html=1;" edge="1" parent="WIyWlLk6GJQsqaUBKTNV-1" source="SUse24sYu-4oGpuoItzY-102" target="SUse24sYu-4oGpuoItzY-111">
          <mxGeometry relative="1" as="geometry">
            <mxPoint x="250" y="-10" as="targetPoint" />
          </mxGeometry>
        </mxCell>
        <mxCell id="SUse24sYu-4oGpuoItzY-115" style="edgeStyle=orthogonalEdgeStyle;rounded=0;orthogonalLoop=1;jettySize=auto;html=1;entryX=1;entryY=0;entryDx=0;entryDy=0;" edge="1" parent="WIyWlLk6GJQsqaUBKTNV-1" source="SUse24sYu-4oGpuoItzY-102" target="SUse24sYu-4oGpuoItzY-74">
          <mxGeometry relative="1" as="geometry" />
        </mxCell>
        <mxCell id="SUse24sYu-4oGpuoItzY-102" value="Supplier,&amp;nbsp;Нийлүүлэгч&amp;nbsp;" style="rounded=0;whiteSpace=wrap;html=1;" vertex="1" parent="WIyWlLk6GJQsqaUBKTNV-1">
          <mxGeometry x="100" y="20" width="120" height="60" as="geometry" />
        </mxCell>
        <mxCell id="SUse24sYu-4oGpuoItzY-104" value="Нэр" style="whiteSpace=wrap;html=1;rounded=0;" vertex="1" parent="WIyWlLk6GJQsqaUBKTNV-1">
          <mxGeometry x="140" y="-90" width="40" height="20" as="geometry" />
        </mxCell>
        <mxCell id="SUse24sYu-4oGpuoItzY-107" value="ID" style="rounded=0;whiteSpace=wrap;html=1;" vertex="1" parent="WIyWlLk6GJQsqaUBKTNV-1">
          <mxGeometry x="80" y="-90" width="50" height="20" as="geometry" />
        </mxCell>
        <mxCell id="SUse24sYu-4oGpuoItzY-109" value="Хаяг" style="rounded=0;whiteSpace=wrap;html=1;" vertex="1" parent="WIyWlLk6GJQsqaUBKTNV-1">
          <mxGeometry x="190" y="-90" width="50" height="20" as="geometry" />
        </mxCell>
        <mxCell id="SUse24sYu-4oGpuoItzY-111" value="Contact&amp;nbsp;&lt;br&gt;утас, email, wechat,twitter" style="rounded=0;whiteSpace=wrap;html=1;" vertex="1" parent="WIyWlLk6GJQsqaUBKTNV-1">
          <mxGeometry x="270" y="-90" width="70" height="60" as="geometry" />
        </mxCell>
        <mxCell id="SUse24sYu-4oGpuoItzY-116" style="edgeStyle=orthogonalEdgeStyle;rounded=0;orthogonalLoop=1;jettySize=auto;html=1;entryX=0.907;entryY=-0.009;entryDx=0;entryDy=0;entryPerimeter=0;" edge="1" parent="WIyWlLk6GJQsqaUBKTNV-1" source="SUse24sYu-4oGpuoItzY-74" target="SUse24sYu-4oGpuoItzY-70">
          <mxGeometry relative="1" as="geometry" />
        </mxCell>
        <mxCell id="SUse24sYu-4oGpuoItzY-117" value="бүтээгдэхүүний код&lt;br style=&quot;border-color: var(--border-color);&quot;&gt;category-id&lt;br&gt;ангиллын дугаар ID" style="whiteSpace=wrap;html=1;fontStyle=1;startSize=23;" vertex="1" parent="WIyWlLk6GJQsqaUBKTNV-1">
          <mxGeometry x="-350" y="400" width="120" height="60" as="geometry" />
        </mxCell>
        <mxCell id="SUse24sYu-4oGpuoItzY-119" style="edgeStyle=orthogonalEdgeStyle;rounded=0;orthogonalLoop=1;jettySize=auto;html=1;entryX=1;entryY=0.5;entryDx=0;entryDy=0;" edge="1" parent="WIyWlLk6GJQsqaUBKTNV-1" source="SUse24sYu-4oGpuoItzY-70" target="SUse24sYu-4oGpuoItzY-68">
          <mxGeometry relative="1" as="geometry" />
        </mxCell>
        <mxCell id="SUse24sYu-4oGpuoItzY-120" style="edgeStyle=orthogonalEdgeStyle;rounded=0;orthogonalLoop=1;jettySize=auto;html=1;exitX=0.5;exitY=1;exitDx=0;exitDy=0;" edge="1" parent="WIyWlLk6GJQsqaUBKTNV-1" source="SUse24sYu-4oGpuoItzY-68" target="SUse24sYu-4oGpuoItzY-68">
          <mxGeometry relative="1" as="geometry" />
        </mxCell>
        <mxCell id="SUse24sYu-4oGpuoItzY-128" value="удирдах хэсэг" style="whiteSpace=wrap;html=1;verticalAlign=top;fontStyle=2;startSize=26;rounded=0;shadow=0;strokeWidth=1;" vertex="1" parent="WIyWlLk6GJQsqaUBKTNV-1">
          <mxGeometry x="-390" y="36" width="120" height="28" as="geometry" />
        </mxCell>
        <mxCell id="SUse24sYu-4oGpuoItzY-129" style="edgeStyle=orthogonalEdgeStyle;rounded=0;orthogonalLoop=1;jettySize=auto;html=1;exitX=1;exitY=0.5;exitDx=0;exitDy=0;" edge="1" parent="WIyWlLk6GJQsqaUBKTNV-1" source="SUse24sYu-4oGpuoItzY-3" target="SUse24sYu-4oGpuoItzY-128">
          <mxGeometry relative="1" as="geometry" />
        </mxCell>
        <mxCell id="SUse24sYu-4oGpuoItzY-130" style="edgeStyle=orthogonalEdgeStyle;rounded=0;orthogonalLoop=1;jettySize=auto;html=1;entryX=0;entryY=0.383;entryDx=0;entryDy=0;entryPerimeter=0;" edge="1" parent="WIyWlLk6GJQsqaUBKTNV-1" source="SUse24sYu-4oGpuoItzY-128" target="SUse24sYu-4oGpuoItzY-74">
          <mxGeometry relative="1" as="geometry" />
        </mxCell>
        <mxCell id="SUse24sYu-4oGpuoItzY-134" style="edgeStyle=orthogonalEdgeStyle;rounded=0;orthogonalLoop=1;jettySize=auto;html=1;entryX=1;entryY=0.75;entryDx=0;entryDy=0;" edge="1" parent="WIyWlLk6GJQsqaUBKTNV-1" source="SUse24sYu-4oGpuoItzY-132" target="SUse24sYu-4oGpuoItzY-36">
          <mxGeometry relative="1" as="geometry" />
        </mxCell>
        <mxCell id="SUse24sYu-4oGpuoItzY-132" value="бүтээгдэхүүн нэмнэ&amp;nbsp;" style="whiteSpace=wrap;html=1;fontStyle=1;startSize=23;" vertex="1" parent="WIyWlLk6GJQsqaUBKTNV-1">
          <mxGeometry x="-590" y="360" width="120" height="60" as="geometry" />
        </mxCell>
        <mxCell id="SUse24sYu-4oGpuoItzY-135" style="edgeStyle=orthogonalEdgeStyle;rounded=0;orthogonalLoop=1;jettySize=auto;html=1;entryX=0;entryY=0.5;entryDx=0;entryDy=0;" edge="1" parent="WIyWlLk6GJQsqaUBKTNV-1" source="SUse24sYu-4oGpuoItzY-11" target="SUse24sYu-4oGpuoItzY-21">
          <mxGeometry relative="1" as="geometry" />
        </mxCell>
        <mxCell id="SUse24sYu-4oGpuoItzY-136" style="edgeStyle=orthogonalEdgeStyle;rounded=0;orthogonalLoop=1;jettySize=auto;html=1;entryX=0;entryY=0;entryDx=0;entryDy=15;entryPerimeter=0;" edge="1" parent="WIyWlLk6GJQsqaUBKTNV-1" source="SUse24sYu-4oGpuoItzY-21" target="SUse24sYu-4oGpuoItzY-22">
          <mxGeometry relative="1" as="geometry" />
        </mxCell>
        <mxCell id="SUse24sYu-4oGpuoItzY-140" style="edgeStyle=orthogonalEdgeStyle;rounded=0;orthogonalLoop=1;jettySize=auto;html=1;exitX=1;exitY=0.5;exitDx=0;exitDy=0;entryX=0;entryY=0.5;entryDx=0;entryDy=0;" edge="1" parent="WIyWlLk6GJQsqaUBKTNV-1" source="zkfFHV4jXpPFQw0GAbJ--3" target="SUse24sYu-4oGpuoItzY-39">
          <mxGeometry relative="1" as="geometry">
            <mxPoint x="-1090" y="161" as="targetPoint" />
          </mxGeometry>
        </mxCell>
        <mxCell id="SUse24sYu-4oGpuoItzY-146" style="edgeStyle=orthogonalEdgeStyle;rounded=0;orthogonalLoop=1;jettySize=auto;html=1;exitX=1;exitY=0.25;exitDx=0;exitDy=0;entryX=0.75;entryY=0;entryDx=0;entryDy=0;" edge="1" parent="WIyWlLk6GJQsqaUBKTNV-1" source="SUse24sYu-4oGpuoItzY-143" target="SUse24sYu-4oGpuoItzY-145">
          <mxGeometry relative="1" as="geometry" />
        </mxCell>
        <mxCell id="SUse24sYu-4oGpuoItzY-147" style="edgeStyle=orthogonalEdgeStyle;rounded=0;orthogonalLoop=1;jettySize=auto;html=1;exitX=0.5;exitY=1;exitDx=0;exitDy=0;" edge="1" parent="WIyWlLk6GJQsqaUBKTNV-1" source="SUse24sYu-4oGpuoItzY-143" target="SUse24sYu-4oGpuoItzY-148">
          <mxGeometry relative="1" as="geometry">
            <mxPoint x="-740" y="570" as="targetPoint" />
          </mxGeometry>
        </mxCell>
        <mxCell id="SUse24sYu-4oGpuoItzY-156" style="edgeStyle=orthogonalEdgeStyle;rounded=0;orthogonalLoop=1;jettySize=auto;html=1;exitX=0;exitY=0.75;exitDx=0;exitDy=0;" edge="1" parent="WIyWlLk6GJQsqaUBKTNV-1" source="SUse24sYu-4oGpuoItzY-143" target="SUse24sYu-4oGpuoItzY-157">
          <mxGeometry relative="1" as="geometry">
            <mxPoint x="-870" y="600" as="targetPoint" />
          </mxGeometry>
        </mxCell>
        <mxCell id="SUse24sYu-4oGpuoItzY-158" style="edgeStyle=orthogonalEdgeStyle;rounded=0;orthogonalLoop=1;jettySize=auto;html=1;exitX=1;exitY=0.75;exitDx=0;exitDy=0;entryX=0;entryY=0.75;entryDx=0;entryDy=0;" edge="1" parent="WIyWlLk6GJQsqaUBKTNV-1" source="SUse24sYu-4oGpuoItzY-143" target="SUse24sYu-4oGpuoItzY-153">
          <mxGeometry relative="1" as="geometry" />
        </mxCell>
        <mxCell id="SUse24sYu-4oGpuoItzY-143" value="захиалга хийх&amp;nbsp;" style="rounded=0;whiteSpace=wrap;html=1;" vertex="1" parent="WIyWlLk6GJQsqaUBKTNV-1">
          <mxGeometry x="-840" y="460" width="110" height="50" as="geometry" />
        </mxCell>
        <mxCell id="SUse24sYu-4oGpuoItzY-145" value="захиалгын хэмжээ&lt;br&gt;order amount" style="rounded=0;whiteSpace=wrap;html=1;" vertex="1" parent="WIyWlLk6GJQsqaUBKTNV-1">
          <mxGeometry x="-700" y="500" width="110" height="30" as="geometry" />
        </mxCell>
        <mxCell id="SUse24sYu-4oGpuoItzY-148" value="order date&lt;br&gt;захиалгын огноо" style="rounded=0;whiteSpace=wrap;html=1;" vertex="1" parent="WIyWlLk6GJQsqaUBKTNV-1">
          <mxGeometry x="-845" y="530" width="120" height="40" as="geometry" />
        </mxCell>
        <mxCell id="SUse24sYu-4oGpuoItzY-153" value="хүргүүлэх газар" style="rounded=0;whiteSpace=wrap;html=1;" vertex="1" parent="WIyWlLk6GJQsqaUBKTNV-1">
          <mxGeometry x="-690" y="565" width="120" height="40" as="geometry" />
        </mxCell>
        <mxCell id="SUse24sYu-4oGpuoItzY-159" style="edgeStyle=orthogonalEdgeStyle;rounded=0;orthogonalLoop=1;jettySize=auto;html=1;exitX=0.75;exitY=1;exitDx=0;exitDy=0;" edge="1" parent="WIyWlLk6GJQsqaUBKTNV-1" source="SUse24sYu-4oGpuoItzY-157" target="SUse24sYu-4oGpuoItzY-160">
          <mxGeometry relative="1" as="geometry">
            <mxPoint x="-820" y="650" as="targetPoint" />
          </mxGeometry>
        </mxCell>
        <mxCell id="SUse24sYu-4oGpuoItzY-161" style="edgeStyle=orthogonalEdgeStyle;rounded=0;orthogonalLoop=1;jettySize=auto;html=1;exitX=0.25;exitY=1;exitDx=0;exitDy=0;" edge="1" parent="WIyWlLk6GJQsqaUBKTNV-1" source="SUse24sYu-4oGpuoItzY-157" target="SUse24sYu-4oGpuoItzY-162">
          <mxGeometry relative="1" as="geometry">
            <mxPoint x="-890" y="670" as="targetPoint" />
          </mxGeometry>
        </mxCell>
        <mxCell id="SUse24sYu-4oGpuoItzY-157" value="Төлбөр төлөх" style="rounded=0;whiteSpace=wrap;html=1;" vertex="1" parent="WIyWlLk6GJQsqaUBKTNV-1">
          <mxGeometry x="-930" y="590" width="110" height="30" as="geometry" />
        </mxCell>
        <mxCell id="SUse24sYu-4oGpuoItzY-160" value="Төлбөрийг хүлээж авсан эсэх" style="rounded=0;whiteSpace=wrap;html=1;" vertex="1" parent="WIyWlLk6GJQsqaUBKTNV-1">
          <mxGeometry x="-800" y="670" width="110" height="50" as="geometry" />
        </mxCell>
        <mxCell id="SUse24sYu-4oGpuoItzY-162" value="Төлбөрийн хугацаа" style="rounded=0;whiteSpace=wrap;html=1;" vertex="1" parent="WIyWlLk6GJQsqaUBKTNV-1">
          <mxGeometry x="-950" y="690" width="100" height="30" as="geometry" />
        </mxCell>
      </root>
    </mxGraphModel>
  </diagram>
</mxfile>
